<svg fill="none" class="rubicons brands-snapchat" xmlns="http://www.w3.org/2000/svg" width="36" height="36" viewBox="0 0 24 24" stroke="rgb(230, 150, 72)" stroke-width="1.5">
  <path d="M11.9907 20.9923c-1.0174.0792-1.8358-.4686-2.5806-1.0291-.7253-.5454-1.034-.7557-1.9387-.7557-.6209 0-1.1074.1752-1.359.1752-.6464 0-.4865-.8213-.6952-1.2371-.675-.112-2.1053-.3782-2.3734-1.0435v-.0016c-.1306-.3239.048-.6174.3093-.6629 1.6203-.2847 2.9365-1.6945 3.5394-3.161a.133.133 0 01.009-.0216c.4258-.9212-.3416-1.0212-1.1487-1.3586-.4738-.1991-1.0211-.5446-.928-1.0812.0736-.4086.5293-.6797.9212-.6797.3732 0 .8853.4782 1.4033.2375-.1561-2.5644-.3604-4.294 1.3057-5.9765C9.41 3.432 10.658 3 11.9907 3m.0186 17.9923c1.0174.0792 1.8358-.4686 2.5806-1.0291.7253-.5454 1.0339-.7557 1.9387-.7557.6209 0 1.1074.1752 1.359.1752.6464 0 .4865-.8213.6952-1.2371.675-.112 2.1053-.3782 2.3734-1.0435v-.0016c.1306-.3239-.0481-.6174-.3094-.6629-1.6202-.2847-2.9364-1.6945-3.5394-3.161a.1238.1238 0 00-.009-.0216c-.4257-.9212.3417-1.0212 1.1488-1.3586.4738-.1991 1.0211-.5446.928-1.0812-.0736-.4086-.5293-.6797-.9212-.6797-.3732 0-.8853.4782-1.4033.2375.1561-2.5644.3604-4.294-1.3057-5.9765C14.5899 3.432 13.3421 3 12.0093 3" stroke-linecap="round" stroke-linejoin="round"></path>
</svg>