<svg fill="none" class="rubicons brands-instagram" xmlns="http://www.w3.org/2000/svg" width="36" height="36" viewBox="0 0 24 24" stroke="rgb(230, 150, 72)" stroke-width="1.5">
  <path d="M16 3H8C5.2386 3 3 5.2386 3 8v8c0 2.7614 2.2386 5 5 5h8c2.7614 0 5-2.2386 5-5V8c0-2.7614-2.2386-5-5-5z" stroke-miterlimit="10"></path>
  <path d="M15.375 12c0-1.864-1.511-3.375-3.375-3.375S8.625 10.136 8.625 12s1.511 3.375 3.375 3.375 3.375-1.511 3.375-3.375zM17.375 7.312c0-.3794-.3086-.687-.688-.687a.687.687 0 00-.687.687v.001c0 .3794.3086.687.688.687a.687.687 0 00.687-.687v-.001z" stroke-miterlimit="10"></path>
</svg>