<svg fill="none" class="rubicons brands-paypal" xmlns="http://www.w3.org/2000/svg" width="36" height="36" viewBox="0 0 24 24" stroke="rgb(230, 150, 72)" stroke-width="1.5">
  <path clip-rule="evenodd" d="M18.387 7.622c-.547 3.447-2.893 5.364-5.977 5.364H9.767c-.436 0-.727.269-.861.979l-1.051 6.309c-.083.5.029.726.346.726h3.364a.4329.4329 0 00.386-.413l.607-3.84c.105-.66.366-.9.754-.9h1.43c2.831 0 4.965-1.852 5.241-5.2a2.7447 2.7447 0 00-1.596-3.025z" stroke-miterlimit="10"></path>
  <path d="M8.07 18.97H4.43c-.37 0-.5-.26-.4-.84L6.41 3.85A.9341.9341 0 017.49 3h5.3599c1.51 0 3.3.05 4.5 1.05.4056.3538.7193.8006.9143 1.3022a3.3286 3.3286 0 01.2057 1.5778c-.02.24-.05.47-.08.69" stroke-miterlimit="10"></path>
</svg>