<svg fill="none" class="rubicons brands-figma" xmlns="http://www.w3.org/2000/svg" width="36" height="36" viewBox="0 0 24 24" stroke="rgb(230, 150, 72)" stroke-width="1.5">
  <path d="M9.236 21a3.0001 3.0001 0 003-3v-3h-3a3 3 0 000 6v0zM6.236 12a3.0001 3.0001 0 013-3h3v6h-3a3 3 0 01-3-3v0zM6.236 6a3 3 0 013-3h3v6h-3a3 3 0 01-3-3v0zM12.236 3h3a3 3 0 010 6h-3V3z" stroke-linecap="round" stroke-linejoin="round"></path>
  <path d="M18.236 12a3.0003 3.0003 0 01-3.5853 2.9424 3.0002 3.0002 0 01-2.1864-4.0905A3.0004 3.0004 0 0115.236 9a3 3 0 013 3v0z" stroke-linecap="round" stroke-linejoin="round"></path>
</svg>