<svg fill="none" class="rubicons arrow-down-circle" xmlns="http://www.w3.org/2000/svg" width="36" height="36" viewBox="0 0 24 24" stroke="rgb(230, 150, 72)" stroke-width="1.5">
  <path clip-rule="evenodd" d="M10.7191 8.321c0-.774.644-1.074 1.682-1.074a11.1003 11.1003 0 014.928 1.275V3.856a13.0845 13.0845 0 00-4.923-.907c-4.019 0-6.7 2.1-6.7 5.607 0 5.485 7.532 4.594 7.532 6.96 0 .915-.8 1.211-1.9 1.211a12.4873 12.4873 0 01-5.422-1.582v4.73A13.7394 13.7394 0 0011.334 21c4.12 0 6.958-2.035 6.958-5.6 0-5.91-7.573-4.85-7.573-7.079z" stroke-miterlimit="10"></path>
</svg>