<svg fill="none" class="rubicons brands-github" xmlns="http://www.w3.org/2000/svg" width="36" height="36" viewBox="0 0 24 24" stroke="rgb(230, 150, 72)" stroke-width="1.5">
  <path d="M15.327 21c0-.4.014-1.7.014-3.318a2.8991 2.8991 0 00-.813-2.24C17.2 15.143 20 14.121 20 9.474a4.6904 4.6904 0 00-1.232-3.245 4.3815 4.3815 0 00-.119-3.2s-1.005-.325-3.293 1.24a11.2642 11.2642 0 00-6 0c-2.29-1.565-3.3-1.24-3.3-1.24a4.39 4.39 0 00-.118 3.2 4.7 4.7 0 00-1.23 3.245c0 4.635 2.8 5.673 5.459 5.978a2.5938 2.5938 0 00-.761 1.617l-.038 1.874" stroke-linecap="round" stroke-linejoin="round"></path>
  <path d="M9.384 21c0-.287-.01-1.048-.016-2.057-3.334.731-4.037-1.621-4.037-1.621A3.2 3.2 0 004 15.553" stroke-miterlimit="10" stroke-linecap="round"></path>
</svg>