<svg fill="none" class="rubicons brands-youtube" xmlns="http://www.w3.org/2000/svg" width="36" height="36" viewBox="0 0 24 24" stroke="rgb(230, 150, 72)" stroke-width="1.5">
  <path d="M9.909 9.154v5.692c1.9111-1.038 5.4481-2.838 5.4481-2.838l-5.448-2.854z" stroke-linecap="round" stroke-linejoin="round"></path>
  <path d="M21 12v-.16c0-.7-.008-1.338-.02-1.55a6.9996 6.9996 0 00-.747-3.378 2.346 2.346 0 00-1.4-.833 66.3978 66.3978 0 00-6.821-.239 66.2677 66.2677 0 00-6.821.239 2.4 2.4 0 00-1.2.607 4.395 4.395 0 00-.895 2.821c-.06.8-.084 1.56-.086 2.333H3v.32c0 .773.026 1.534.086 2.333a4.395 4.395 0 00.9 2.821c.334.3126.7503.5232 1.2.607a66.248 66.248 0 006.821.239 66.3893 66.3893 0 006.821-.239 2.3458 2.3458 0 001.4-.833 6.9996 6.9996 0 00.747-3.378c.012-.212.019-.854.02-1.55L21 12z" stroke-linecap="round" stroke-linejoin="round"></path>
</svg>