<svg xmlns="http://www.w3.org/2000/svg" class="rubicons bug" width="36" height="36" viewBox="0 0 24 24" stroke="rgb(230, 150, 72)" stroke-width="1.5" fill="none">
  <path d="M17.86 11.31c.0929.5585.1398 1.1238.14 1.69 0 4.42-2.69 8-6 8s-6-3.58-6-8c.0002-.5662.047-1.1315.14-1.69M7.323 8A5.587 5.587 0 0112 5a5.5873 5.5873 0 014.677 3" stroke-linecap="round"></path>
  <path d="M21 7.32a10.9126 10.9126 0 01-3.14 2.99 10.9999 10.9999 0 01-11.72 0A10.9129 10.9129 0 013 7.32M3 15a4.938 4.938 0 013-1M4 20c1-1 2-2 3.14-1.99M18.14 14a4.938 4.938 0 013 1M17 18.01c1.14-.01 2.14.99 3.14 1.99M9.25 5.9A3.986 3.986 0 018 3M16 3a3.9853 3.9853 0 01-1.25 2.9" stroke-linecap="round"></path>
  <path d="M11 17l-2.5-3" stroke-linecap="round" stroke-dasharray="0.01 3"></path>
</svg>