<svg xmlns="http://www.w3.org/2000/svg" class="rubicons cloud-rain" width="36" height="36" viewBox="0 0 24 24" stroke="rgb(230, 150, 72)" stroke-width="1.5" fill="none">
  <path d="M19 16a5.0005 5.0005 0 001.7434-5.5811A4.9996 4.9996 0 0016 6.9999a4.9375 4.9375 0 00-1.088.127 4.9875 4.9875 0 00-2.1548-3.3521 4.9875 4.9875 0 00-5.7648.1604A4.9882 4.9882 0 005.232 9.427a3.9842 3.9842 0 00-1.98 4.9779A3.9845 3.9845 0 004.354 16" stroke-miterlimit="10" stroke-linecap="round"></path>
  <path d="M8 12v2M12 14v2M16 12v2M8 17v2M12 19v2M16 17v2" stroke-linecap="round" stroke-linejoin="round"></path>
</svg>