<svg xmlns="http://www.w3.org/2000/svg" class="rubicons handle-vertical" width="36" height="36" viewBox="0 0 24 24" stroke="rgb(230, 150, 72)" stroke-width="1.5" fill="none">
  <path d="M9 19c.5523 0 1-.4477 1-1s-.4477-1-1-1-1 .4477-1 1 .4477 1 1 1zM9 13c.5523 0 1-.4477 1-1s-.4477-1-1-1-1 .4477-1 1 .4477 1 1 1zM9 7c.5523 0 1-.4477 1-1s-.4477-1-1-1-1 .4477-1 1 .4477 1 1 1zM15 19c.5523 0 1-.4477 1-1s-.4477-1-1-1-1 .4477-1 1 .4477 1 1 1zM15 13c.5523 0 1-.4477 1-1s-.4477-1-1-1-1 .4477-1 1 .4477 1 1 1zM15 7c.5523 0 1-.4477 1-1s-.4477-1-1-1-1 .4477-1 1 .4477 1 1 1z" stroke-linecap="square"></path>
</svg>