<svg xmlns="http://www.w3.org/2000/svg" class="rubicons hotspot-alt" width="36" height="36" viewBox="0 0 24 24" stroke="rgb(230, 150, 72)" stroke-width="1.5" fill="none">
  <circle cx="12" cy="12" r="1"></circle>
  <path d="M19.0613 19.0808C20.8767 17.2704 22 14.7664 22 12c0-5.5229-4.4772-10-10-10C6.4771 2 2 6.4771 2 12c0 2.7624 1.12 5.2632 2.9309 7.073" stroke-linecap="round"></path>
  <path d="M16.9429 16.9566C18.2137 15.6893 19 13.9365 19 12c0-3.866-3.134-7-7-7s-7 3.134-7 7c0 1.9337.784 3.6843 2.0516 4.9511" stroke-linecap="round"></path>
  <path d="M14.8245 14.8323C15.5507 14.1082 16 13.1066 16 12c0-2.2091-1.7909-4-4-4-2.2091 0-4 1.7909-4 4 0 1.105.448 2.1053 1.1723 2.8292" stroke-linecap="round"></path>
</svg>