<svg xmlns="http://www.w3.org/2000/svg" class="rubicons hotspot" width="36" height="36" viewBox="0 0 24 24" stroke="rgb(230, 150, 72)" stroke-width="1.5" fill="none">
  <circle cx="12" cy="12" r="1"></circle>
  <path d="M19.0808 4.9387C20.8847 6.7476 22 9.2436 22 12c0 2.7604-1.1185 5.2596-2.927 7.0691M16.9566 7.0571c1.2628 1.2662 2.0435 3.0134 2.0435 4.9429 0 1.9323-.783 3.6817-2.0489 4.9484M14.8323 9.1755C15.5539 9.899 16 10.8974 16 12c0 1.1042-.4474 2.1038-1.1708 2.8276M4.7484 19.0691c-1.8039-1.8089-2.9192-4.3048-2.9192-7.0613 0-2.7604 1.1185-5.2596 2.927-7.0691M6.8727 16.9507c-1.2627-1.2662-2.0434-3.0134-2.0434-4.9429 0-1.9323.783-3.6818 2.0489-4.9484M8.9969 14.8323c-.7216-.7236-1.1677-1.722-1.1677-2.8245 0-1.1042.4474-2.1039 1.1708-2.8277" stroke-linecap="round"></path>
</svg>