<svg xmlns="http://www.w3.org/2000/svg" class="rubicons map-pin-location-alt" width="36" height="36" viewBox="0 0 24 24" stroke="rgb(230, 150, 72)" stroke-width="1.5" fill="none">
  <path d="M17.625 16c2.0576.5155 3.375 1.3062 3.375 2.1923C21 19.7433 16.9703 21 12 21s-9-1.2567-9-2.8077C3 17.3062 4.3174 16.5144 6.375 16" stroke-linecap="round" stroke-linejoin="round"></path>
  <path d="M12 11v7M12 11c2.2091 0 4-1.7909 4-4 0-2.2091-1.7909-4-4-4-2.2091 0-4 1.7909-4 4 0 2.2091 1.7909 4 4 4z" stroke-linecap="round"></path>
  <path d="M10 6c.5523 0 1-.4477 1-1s-.4477-1-1-1-1 .4477-1 1 .4477 1 1 1z" stroke-linecap="round"></path>
</svg>