<svg xmlns="http://www.w3.org/2000/svg" class="rubicons mic-off" width="36" height="36" viewBox="0 0 24 24" stroke="rgb(230, 150, 72)" stroke-width="1.5" fill="none">
  <path d="M8 22h8M12 18v4M6 3l12 18M6 10v2c0 3.3137 2.6863 6 6 6 1.2267 0 2.3675-.3682 3.3178-1M18 10v2a5.9904 5.9904 0 01-.3414 2" stroke-linecap="round"></path>
  <path d="M9 7.5V12c0 1.6569 1.3431 3 3 3a2.9863 2.9863 0 001.6589-.5M9.7639 3c.5493-.6138 1.3476-1 2.2361-1 1.6569 0 3 1.3432 3 3v6" stroke-linecap="round"></path>
</svg>