<svg xmlns="http://www.w3.org/2000/svg" class="rubicons server-cloud" width="36" height="36" viewBox="0 0 24 24" stroke="rgb(230, 150, 72)" stroke-width="1.5" fill="none">
  <path d="M17 19.818c0 2.9093-10 2.9093-10 0v-7.636c0-2.9093 10-2.9093 10 0v7.636zM17 12c0 2.6667-10 2.6667-10 0M17 16c0 2.6667-10 2.6667-10 0" stroke-linecap="round" stroke-linejoin="round"></path>
  <path d="M3.0757 16a4.4027 4.4027 0 01-.52-.7412 4.3827 4.3827 0 010-4.2713 4.4196 4.4196 0 011.9256-1.8196 5.4767 5.4767 0 01-.2274-2.236 5.4847 5.4847 0 01.6902-2.1401 5.5183 5.5183 0 011.4926-1.688 5.5555 5.5555 0 012.0467-.9546 5.5732 5.5732 0 012.26-.0625 5.5598 5.5598 0 012.0969.84 5.5229 5.5229 0 011.5848 1.6029 5.4882 5.4882 0 01.8087 2.0986 5.5152 5.5152 0 011.2086-.1402 5.5745 5.5745 0 013.5054 1.2357 5.5158 5.5158 0 011.9351 3.1574 5.4914 5.4914 0 01-.5032 3.6632 5.5209 5.5209 0 01-.4905.7772" stroke-linecap="round"></path>
</svg>